<?xml version="1.0" encoding="UTF-8"?>
<svg id="Layer_2" data-name="Layer 2" xmlns="http://www.w3.org/2000/svg" viewBox="0 0 125.53 98.58">
  <defs>
    <style>
      .cls-1 {
        fill: #294159;
      }

      .cls-2 {
        fill: #f4f4f4;
      }

      .cls-3 {
        fill: #189ffa;
      }
    </style>
  </defs>
  <g id="OBJECTS">
    <g>
      <path class="cls-1" d="M93.29,33.88h-2.37V15.42c0-7.19-5.85-13.05-13.05-13.05s-13.05,5.85-13.05,13.05v18.46h-2.37V15.42c0-8.5,6.92-15.42,15.42-15.42s15.42,6.92,15.42,15.42v18.46Z"/>
      <path class="cls-1" d="M109.86,26.15l-54.38-.25c-2.05,0-3.97,1.06-5.02,2.66V97.49c7.86-.42,15.77-1.86,23.39-4.31,5.15-1.66,10.17-3.76,14.95-6.3,3.88-2.06,8.7-4.69,10.07-8.78l15.5-46.26c.98-2.93-1.19-5.68-4.5-5.7Z"/>
      <path class="cls-3" d="M41.89,25.14c.04,1.36,.05,2.72,.06,4.08,.01,3.43,.31,21.16,.26,26.58-.06,6.74-.16,13.69-2.28,20.17-.88,2.7-2.44,5.42-4.89,6.98-2.57,1.64-6.57,1.25-9.43,.68-2.39-.48-4.72-1.27-6.87-2.43-3.05-1.64-5.71-4-7.66-6.87-.67-.99-1.24-2.03-1.7-3.13,2.67,16.69,17.09,26.84,33.38,27.34,10.1,.31,20.25-1.37,29.71-4.92,4.85-1.82,9.52-4.12,13.9-6.89,3.56-2.25,7.97-5.11,8.85-9.55l9.93-50.11c.63-3.18-1.8-6.14-5.04-6.14H46.95c-2.47,0-4.6,1.76-5.05,4.2Z"/>
      <g>
        <path class="cls-1" d="M68.32,85.65l-.61-1.15-4.37-8.82c-.95,.58-2.17,1.22-3.67,1.98-2.13,1.07-4.54,2.03-7.39,2.93-5.34,1.69-10.59,2.55-15.62,2.55-3.98,0-7.78-.53-11.38-1.57-10.3-2.96-19.5-10.73-23.44-19.79l3.67-1.6c.09,.16,.56,.58,.81,.81,.17,.15,.33,.29,.46,.43,1.43,1.39,3.06,2.64,4.86,3.72,4.22,2.54,9.56,3.88,15.44,3.88,1.19,0,2.4-.06,3.6-.17,5.38-.5,11.54-2.64,16.06-5.59,.17-.11,.34-.22,.5-.33l-12.93-1.33-.29-1.59c-.14-.93,.36-1.84,1.23-2.21l41.92-18.45h.45s.94,0,.94,0l.65,.75c.39,.48,.55,1.1,.44,1.7l-8.35,43.79-1.72,.05h-1.25Z"/>
        <path class="cls-2" d="M77.6,41.36s.07,.04,.06,.08l-8.04,42.16s-.04,.05-.06,.05c-.02,0-.05-.01-.06-.04l-5.46-11.02c.19,.38-4.86,3.07-5.28,3.28-2.28,1.15-4.67,2.04-7.1,2.81-4.85,1.54-9.92,2.45-15.02,2.45-.02,0-.05,0-.07,0-3.63,0-7.26-.49-10.75-1.49-9.26-2.66-18.25-9.66-22.16-18.66,.3,.68,1.2,1.37,1.71,1.87,1.58,1.53,3.34,2.87,5.22,4,4.88,2.94,10.74,4.17,16.47,4.17,1.27,0,2.54-.06,3.78-.18,5.63-.52,12.12-2.75,16.97-5.91,2.59-1.69,3.66-3.04,4-3.54l-15.79-1.62c-.07,0-.08-.1-.02-.12l41.55-18.29s.02,0,.03,0m0-4h-.84l-.8,.35-41.55,18.29c-1.69,.74-2.66,2.53-2.38,4.35,.29,1.82,1.77,3.22,3.6,3.41l4.92,.5c-3.25,1.37-6.81,2.3-10.06,2.6-1.14,.11-2.29,.16-3.41,.16-5.52,0-10.5-1.24-14.41-3.6-1.67-1-3.18-2.16-4.5-3.44-.15-.15-.33-.31-.52-.48-.17-.15-.45-.41-.54-.51,0,0,.11,.14,.23,.4l-7.34,3.19c4.17,9.59,13.87,17.79,24.73,20.91,3.78,1.09,7.76,1.64,11.84,1.65h.08c5.24,0,10.7-.89,16.23-2.64,2.95-.93,5.47-1.93,7.69-3.06,.23-.12,1.01-.53,1.9-1.02l3.45,6.97c.69,1.4,2.09,2.26,3.64,2.26,1.95,0,3.63-1.39,3.99-3.3l8.04-42.16c.23-1.19-.09-2.42-.86-3.35-.78-.94-1.92-1.47-3.13-1.47h0Z"/>
      </g>
      <g>
        <g>
          <path class="cls-1" d="M59.71,34.95c0,1.69-1.37,3.05-3.05,3.05s-3.05-1.37-3.05-3.05,1.37-3.05,3.05-3.05,3.05,1.37,3.05,3.05Z"/>
          <path class="cls-1" d="M56.66,38.59c-2.01,0-3.65-1.64-3.65-3.65s1.64-3.65,3.65-3.65,3.65,1.64,3.65,3.65-1.64,3.65-3.65,3.65Zm0-6.11c-1.36,0-2.46,1.1-2.46,2.46s1.1,2.46,2.46,2.46,2.46-1.1,2.46-2.46-1.1-2.46-2.46-2.46Z"/>
        </g>
        <g>
          <path class="cls-1" d="M88.18,34.95c0,1.69-1.37,3.05-3.05,3.05s-3.05-1.37-3.05-3.05,1.37-3.05,3.05-3.05,3.05,1.37,3.05,3.05Z"/>
          <path class="cls-1" d="M85.13,38.59c-2.01,0-3.65-1.64-3.65-3.65s1.64-3.65,3.65-3.65,3.65,1.64,3.65,3.65-1.64,3.65-3.65,3.65Zm0-6.11c-1.36,0-2.46,1.1-2.46,2.46s1.1,2.46,2.46,2.46,2.46-1.1,2.46-2.46-1.1-2.46-2.46-2.46Z"/>
        </g>
      </g>
      <path class="cls-1" d="M86.31,34.95h-2.37V16.49c0-7.19-5.85-13.05-13.05-13.05s-13.05,5.85-13.05,13.05v18.46h-2.37V16.49c0-8.5,6.92-15.42,15.42-15.42s15.42,6.92,15.42,15.42v18.46Z"/>
      <path class="cls-1" d="M104.5,14.3s14.37,2.81,14.96,19.44c.59,16.63-10.65,28.45-10.65,28.45,0,0,17.5-13.2,16.71-33.7-.79-20.5-21.01-14.2-21.01-14.2Z"/>
    </g>
  </g>
</svg>